<svg width="5520" height="2635" viewBox="0 0 5520 2635" fill="none" xmlns="http://www.w3.org/2000/svg">
<g clip-path="url(#clip0_14_59)">
<rect width="5520" height="2635" fill="white"/>
<path d="M3774.73 941.215C3774.73 941.215 4130.43 872.851 4148.37 894.938C4166.31 917.025 4195.54 1085.05 4173.53 1098.12C4151.53 1111.18 3799.9 1144.39 3799.9 1144.39L3774.73 941.215Z" fill="#FF0000"/>
<mask id="path-2-inside-1_14_59" fill="white">
<path d="M3656.92 1211.28C3696.36 1230.8 3716.97 1275.06 3706.54 1317.81L3697.29 1355.74C3695.38 1363.55 3692.48 1371.08 3688.66 1378.15L3630.92 1485L3555.42 1606L3331.92 1968L3167.78 2169.18C3128.73 2217.04 3054.92 2214.87 3018.75 2164.8L2746.31 1787.68C2720.69 1752.22 2722.93 1703.77 2751.7 1670.82L2830.44 1580.63L2932.12 1458.16L3109.05 1287.49L3234.24 1175.42L3335.6 1105.9C3363.67 1086.65 3399.96 1084.08 3430.47 1099.18L3656.92 1211.28Z"/>
</mask>
<path d="M3656.92 1211.28C3696.36 1230.8 3716.97 1275.06 3706.54 1317.81L3697.29 1355.74C3695.38 1363.55 3692.48 1371.08 3688.66 1378.15L3630.92 1485L3555.42 1606L3331.92 1968L3167.78 2169.18C3128.73 2217.04 3054.92 2214.87 3018.75 2164.8L2746.31 1787.68C2720.69 1752.22 2722.93 1703.77 2751.7 1670.82L2830.44 1580.63L2932.12 1458.16L3109.05 1287.49L3234.24 1175.42L3335.6 1105.9C3363.67 1086.65 3399.96 1084.08 3430.47 1099.18L3656.92 1211.28Z" fill="#FF0000"/>
<path d="M3018.34 2165.09C3018.61 2164.9 3018.88 2164.7 3019.16 2164.51C2989.16 2123.03 2959.17 2081.55 2929.18 2040.08C2868.31 1955.88 2807.44 1871.69 2746.57 1787.5C2721.21 1753.58 2723.54 1702.47 2751.91 1671C2778.14 1640.93 2804.38 1610.85 2830.62 1580.78C2864.5 1539.94 2898.39 1499.11 2932.27 1458.28L2932.26 1458.3C2991.22 1401.39 3050.18 1344.49 3109.14 1287.59C3150.86 1250.22 3192.59 1212.86 3234.31 1175.49L3234.3 1175.5C3268.08 1152.32 3301.86 1129.14 3335.65 1105.97C3362.98 1086.87 3400.68 1084.19 3430.44 1099.24C3505.93 1136.59 3581.42 1173.95 3656.91 1211.31C3695.5 1229.62 3717.33 1276.47 3706.53 1317.8C3703.44 1330.45 3700.36 1343.09 3697.27 1355.74C3695.37 1363.53 3692.47 1371.08 3688.65 1378.14C3669.4 1413.76 3650.16 1449.38 3630.91 1485C3605.75 1525.33 3580.58 1565.67 3555.42 1606C3539.1 1632.43 3522.78 1658.86 3506.46 1685.29C3448.28 1779.53 3390.07 1873.75 3331.83 1967.95L3331.84 1967.94C3277.09 2034.97 3222.33 2101.98 3167.55 2168.99C3163.61 2173.8 3159.23 2178.22 3154.45 2182.16C3115.1 2216.15 3048.32 2207.53 3019.16 2164.51C3018.88 2164.7 3018.61 2164.9 3018.34 2165.09C3047.95 2208.49 3115.32 2216.96 3154.85 2182.65C3159.66 2178.67 3164.07 2174.22 3168.01 2169.37C3222.66 2102.25 3277.32 2035.15 3331.99 1968.06L3332 1968.05C3390.12 1873.78 3448.28 1779.53 3506.46 1685.29C3522.78 1658.86 3539.1 1632.43 3555.42 1606C3580.58 1565.67 3605.75 1525.34 3630.92 1485C3650.17 1449.39 3669.42 1413.77 3688.67 1378.15C3692.49 1371.09 3695.4 1363.54 3697.3 1355.74C3700.39 1343.1 3703.47 1330.45 3706.56 1317.81C3717.37 1276.46 3695.55 1229.59 3656.94 1211.25C3581.45 1173.88 3505.98 1136.5 3430.5 1099.13C3400.7 1084.06 3362.94 1086.73 3335.56 1105.84C3301.77 1129.01 3267.98 1152.17 3234.19 1175.34L3234.18 1175.34C3192.44 1212.69 3150.7 1250.04 3108.96 1287.39C3049.97 1344.27 2990.98 1401.14 2931.99 1458.02L2931.97 1458.03C2898.07 1498.85 2864.16 1539.66 2830.25 1580.47C2804 1610.52 2777.75 1640.58 2751.49 1670.64C2722.93 1702.28 2720.54 1753.7 2746.05 1787.87C2806.86 1872.11 2867.67 1956.35 2928.48 2040.59C2958.43 2082.09 2988.39 2123.59 3018.34 2165.09ZM3019.16 2164.51L3018.34 2165.09L3019.16 2164.51Z" fill="black" mask="url(#path-2-inside-1_14_59)"/>
<path d="M3991.42 1035.5C3991.42 1212.51 3845.01 1356 3664.42 1356C3483.82 1356 3337.42 1212.51 3337.42 1035.5C3337.42 858.493 3483.82 715 3664.42 715C3845.01 715 3991.42 858.493 3991.42 1035.5Z" fill="white"/>
<circle cx="3664.42" cy="1035" r="303" fill="#FF0000"/>
<circle cx="2965.42" cy="1892" r="372" fill="black"/>
<circle cx="2966" cy="1892" r="255" fill="white"/>
<ellipse cx="3664.92" cy="1035" rx="230.5" ry="226" fill="white"/>
<circle cx="2965.92" cy="1892.5" r="124.5" fill="#FF0000"/>
<path d="M3822.42 1020.5C3822.42 1107.49 3751.9 1178 3664.92 1178C3577.93 1178 3507.42 1107.49 3507.42 1020.5C3507.42 933.515 3577.93 863 3664.92 863C3751.9 863 3822.42 933.515 3822.42 1020.5Z" fill="#FF0000"/>
<path d="M4073.79 1042.8L4281.79 1008.3L4429.29 1328.3L4365.29 1411.8L4073.79 1042.8Z" fill="#FF0000"/>
<path d="M4043.34 941.786L4296.84 924.375L4380.77 508.107L4282.49 428L4043.34 941.786Z" fill="#FF0000"/>
<path d="M4818.46 1213.77L4821.46 1222.27L4365.97 1411.96L4336.83 1318.16L4436.96 1318.16L4627.46 1248.46L4778.96 1222.27L4818.46 1213.77Z" fill="#FF0000"/>
<path d="M4742.46 615.197L4745.46 606.697L4517.72 511.848L4289.97 417L4260.83 510.802L4360.96 510.802L4551.46 580.499L4702.96 606.697L4742.46 615.197Z" fill="#FF0000"/>
<line x1="4238.83" y1="931.983" x2="4059.83" y2="946.983" stroke="white" stroke-width="10"/>
<line x1="4283.62" y1="1002.85" x2="4106.62" y2="1046.85" stroke="white" stroke-width="10"/>
<path d="M4063.42 947.609L4078.42 841" stroke="white" stroke-width="10"/>
<line x1="4149.52" y1="1221.61" x2="4112.52" y2="1043.01" stroke="white" stroke-width="10"/>
<path d="M329.53 2158V1648.91H541.817C579.932 1648.91 611.833 1654.29 637.52 1665.07C663.372 1675.84 682.761 1690.92 695.688 1710.31C708.779 1729.7 715.325 1752.15 715.325 1777.67C715.325 1797.06 711.265 1814.38 703.145 1829.63C695.025 1844.71 683.839 1857.22 669.587 1867.16C655.335 1877.11 638.846 1884.07 620.119 1888.04V1893.01C640.669 1894.01 659.643 1899.56 677.044 1909.67C694.61 1919.78 708.697 1933.86 719.303 1951.93C729.909 1969.83 735.212 1991.04 735.212 2015.56C735.212 2042.91 728.251 2067.35 714.331 2088.89C700.411 2110.27 680.276 2127.18 653.926 2139.61C627.577 2151.87 595.593 2158 557.974 2158H329.53ZM452.577 2058.82H528.642C555.323 2058.82 574.961 2053.76 587.555 2043.65C600.316 2033.54 606.696 2019.46 606.696 2001.39C606.696 1988.3 603.63 1977.03 597.499 1967.59C591.367 1957.98 582.667 1950.6 571.398 1945.46C560.129 1940.16 546.623 1937.51 530.879 1937.51H452.577V2058.82ZM452.577 1858.21H520.688C534.111 1858.21 546.043 1855.98 556.483 1851.5C566.923 1847.03 575.044 1840.56 580.844 1832.11C586.81 1823.66 589.793 1813.47 589.793 1801.54C589.793 1784.47 583.744 1771.04 571.646 1761.27C559.549 1751.49 543.225 1746.6 522.676 1746.6H452.577V1858.21ZM1102.36 1648.91H1225.16V1977.28C1225.16 2015.23 1216.13 2048.29 1198.07 2076.47C1180 2104.47 1154.81 2126.18 1122.5 2141.59C1090.18 2156.84 1052.65 2164.46 1009.89 2164.46C966.639 2164.46 928.855 2156.84 896.54 2141.59C864.224 2126.18 839.118 2104.47 821.22 2076.47C803.322 2048.29 794.374 2015.23 794.374 1977.28V1648.91H917.42V1966.59C917.42 1984.16 921.232 1999.82 928.855 2013.58C936.644 2027.33 947.499 2038.1 961.419 2045.89C975.339 2053.68 991.497 2057.57 1009.89 2057.57C1028.29 2057.57 1044.36 2053.68 1058.12 2045.89C1072.04 2038.1 1082.89 2027.33 1090.68 2013.58C1098.47 1999.82 1102.36 1984.16 1102.36 1966.59V1648.91ZM1425.33 1648.91V2158H1302.28V1648.91H1425.33ZM1502.58 2158V1648.91H1625.62V2058.07H1837.41V2158H1502.58ZM2089.29 2158H1901.11V1648.91H2089.04C2140.91 1648.91 2185.57 1659.1 2223.02 1679.48C2260.64 1699.7 2289.64 1728.87 2310.03 1766.98C2330.41 1804.93 2340.6 1850.34 2340.6 1903.21C2340.6 1956.24 2330.41 2001.81 2310.03 2039.92C2289.81 2078.04 2260.89 2107.29 2223.27 2127.67C2185.65 2147.89 2140.99 2158 2089.29 2158ZM2024.16 2053.1H2084.56C2113.07 2053.1 2137.18 2048.29 2156.9 2038.68C2176.79 2028.9 2191.78 2013.08 2201.89 1991.2C2212.17 1969.16 2217.31 1939.83 2217.31 1903.21C2217.31 1866.58 2212.17 1837.42 2201.89 1815.71C2191.62 1793.83 2176.46 1778.09 2156.4 1768.48C2136.52 1758.7 2111.99 1753.81 2082.82 1753.81H2024.16V2053.1Z" fill="black"/>
<path d="M3587.53 2158V1648.91H3799.82C3837.93 1648.91 3869.83 1654.29 3895.52 1665.07C3921.37 1675.84 3940.76 1690.92 3953.69 1710.31C3966.78 1729.7 3973.33 1752.15 3973.33 1777.67C3973.33 1797.06 3969.27 1814.38 3961.14 1829.63C3953.02 1844.71 3941.84 1857.22 3927.59 1867.16C3913.33 1877.11 3896.85 1884.07 3878.12 1888.04V1893.01C3898.67 1894.01 3917.64 1899.56 3935.04 1909.67C3952.61 1919.78 3966.7 1933.86 3977.3 1951.93C3987.91 1969.83 3993.21 1991.04 3993.21 2015.56C3993.21 2042.91 3986.25 2067.35 3972.33 2088.89C3958.41 2110.27 3938.28 2127.18 3911.93 2139.61C3885.58 2151.87 3853.59 2158 3815.97 2158H3587.53ZM3710.58 2058.82H3786.64C3813.32 2058.82 3832.96 2053.76 3845.56 2043.65C3858.32 2033.54 3864.7 2019.46 3864.7 2001.39C3864.7 1988.3 3861.63 1977.03 3855.5 1967.59C3849.37 1957.98 3840.67 1950.6 3829.4 1945.46C3818.13 1940.16 3804.62 1937.51 3788.88 1937.51H3710.58V2058.82ZM3710.58 1858.21H3778.69C3792.11 1858.21 3804.04 1855.98 3814.48 1851.5C3824.92 1847.03 3833.04 1840.56 3838.84 1832.11C3844.81 1823.66 3847.79 1813.47 3847.79 1801.54C3847.79 1784.47 3841.74 1771.04 3829.65 1761.27C3817.55 1751.49 3801.23 1746.6 3780.68 1746.6H3710.58V1858.21ZM4532.88 1903.45C4532.88 1959.47 4522.11 2006.95 4500.56 2045.89C4479.02 2084.83 4449.85 2114.42 4413.06 2134.63C4376.44 2154.85 4335.34 2164.96 4289.77 2164.96C4244.03 2164.96 4202.85 2154.77 4166.22 2134.38C4129.6 2114 4100.52 2084.42 4078.97 2045.64C4057.59 2006.7 4046.9 1959.3 4046.9 1903.45C4046.9 1847.44 4057.59 1799.96 4078.97 1761.02C4100.52 1722.07 4129.6 1692.49 4166.22 1672.28C4202.85 1652.06 4244.03 1641.95 4289.77 1641.95C4335.34 1641.95 4376.44 1652.06 4413.06 1672.28C4449.85 1692.49 4479.02 1722.07 4500.56 1761.02C4522.11 1799.96 4532.88 1847.44 4532.88 1903.45ZM4407.1 1903.45C4407.1 1870.31 4402.37 1842.3 4392.93 1819.43C4383.65 1796.57 4370.22 1779.25 4352.66 1767.48C4335.26 1755.72 4314.29 1749.83 4289.77 1749.83C4265.41 1749.83 4244.44 1755.72 4226.88 1767.48C4209.31 1779.25 4195.8 1796.57 4186.36 1819.43C4177.08 1842.3 4172.44 1870.31 4172.44 1903.45C4172.44 1936.6 4177.08 1964.61 4186.36 1987.47C4195.8 2010.34 4209.31 2027.66 4226.88 2039.43C4244.44 2051.19 4265.41 2057.08 4289.77 2057.08C4314.29 2057.08 4335.26 2051.19 4352.66 2039.43C4370.22 2027.66 4383.65 2010.34 4392.93 1987.47C4402.37 1964.61 4407.1 1936.6 4407.1 1903.45ZM4564.82 1748.84V1648.91H4995.11V1748.84H4840.74V2158H4719.44V1748.84H4564.82Z" fill="black"/>
<line x1="2407" y1="1901" x2="2539" y2="1901" stroke="black" stroke-width="100"/>
<line x1="3434" y1="1901" x2="3566" y2="1901" stroke="black" stroke-width="100"/>
<path d="M2946 2313.5L2946 2470" stroke="black" stroke-width="70"/>
<path d="M2946 161L2946 1350.5" stroke="black" stroke-width="70"/>
<line x1="5229" y1="194" x2="2912" y2="194" stroke="black" stroke-width="70"/>
<line x1="5228" y1="2441" x2="2911" y2="2441" stroke="black" stroke-width="70"/>
<line x1="5193" y1="159" x2="5193" y2="2476" stroke="black" stroke-width="70"/>
</g>
<defs>
<clipPath id="clip0_14_59">
<rect width="5520" height="2635" fill="white"/>
</clipPath>
</defs>
</svg>
