<svg width="2687" height="2687" viewBox="0 0 2687 2687" fill="none" xmlns="http://www.w3.org/2000/svg">
<rect width="2687" height="2687" fill="white"/>
<path d="M1411.73 941.215C1411.73 941.215 1767.43 872.851 1785.37 894.938C1803.31 917.025 1832.54 1085.05 1810.53 1098.12C1788.53 1111.18 1436.9 1144.39 1436.9 1144.39L1411.73 941.215Z" fill="#FF0000"/>
<mask id="path-2-inside-1_12_2" fill="white">
<path d="M1293.92 1211.28C1333.36 1230.8 1353.97 1275.06 1343.54 1317.81L1334.29 1355.74C1332.38 1363.55 1329.48 1371.08 1325.66 1378.15L1267.92 1485L1192.42 1606L968.915 1968L804.781 2169.18C765.732 2217.04 691.922 2214.87 655.75 2164.8L383.313 1787.68C357.694 1752.22 359.926 1703.77 388.698 1670.82L467.438 1580.63L569.121 1458.16L746.052 1287.49L871.244 1175.42L972.602 1105.9C1000.67 1086.65 1036.96 1084.08 1067.47 1099.18L1293.92 1211.28Z"/>
</mask>
<path d="M1293.92 1211.28C1333.36 1230.8 1353.97 1275.06 1343.54 1317.81L1334.29 1355.74C1332.38 1363.55 1329.48 1371.08 1325.66 1378.15L1267.92 1485L1192.42 1606L968.915 1968L804.781 2169.18C765.732 2217.04 691.922 2214.87 655.75 2164.8L383.313 1787.68C357.694 1752.22 359.926 1703.77 388.698 1670.82L467.438 1580.63L569.121 1458.16L746.052 1287.49L871.244 1175.42L972.602 1105.9C1000.67 1086.65 1036.96 1084.08 1067.47 1099.18L1293.92 1211.28Z" fill="#FF0000"/>
<path d="M655.345 2165.09C655.615 2164.9 655.885 2164.7 656.155 2164.51C626.164 2123.03 596.174 2081.55 566.185 2040.08C505.311 1955.88 444.44 1871.69 383.571 1787.5C358.205 1753.58 360.537 1702.47 388.906 1671C415.143 1640.93 441.38 1610.85 467.618 1580.78C501.504 1539.94 535.387 1499.11 569.27 1458.28L569.255 1458.3C628.217 1401.39 687.18 1344.49 746.144 1287.59C787.863 1250.22 829.586 1212.86 871.31 1175.49L871.3 1175.5C905.082 1152.32 938.863 1129.14 972.645 1105.97C999.976 1086.87 1037.68 1084.19 1067.44 1099.24C1142.93 1136.59 1218.42 1173.95 1293.91 1211.31C1332.5 1229.62 1354.33 1276.47 1343.53 1317.8C1340.44 1330.45 1337.36 1343.09 1334.27 1355.74C1332.37 1363.53 1329.47 1371.08 1325.65 1378.14C1306.4 1413.76 1287.16 1449.38 1267.91 1485C1242.75 1525.33 1217.58 1565.67 1192.42 1606C1176.1 1632.43 1159.78 1658.86 1143.46 1685.29C1085.28 1779.53 1027.07 1873.75 968.835 1967.95L968.842 1967.94C914.092 2034.97 859.328 2101.98 804.548 2168.99C800.615 2173.8 796.228 2178.22 791.446 2182.16C752.103 2216.15 685.321 2207.53 656.155 2164.51C655.885 2164.7 655.615 2164.9 655.345 2165.09C684.952 2208.49 752.319 2216.96 791.853 2182.65C796.659 2178.67 801.065 2174.22 805.013 2169.37C859.657 2102.25 914.315 2035.15 968.989 1968.06L968.996 1968.05C1027.12 1873.78 1085.28 1779.53 1143.46 1685.29C1159.78 1658.86 1176.1 1632.43 1192.42 1606C1217.58 1565.67 1242.75 1525.34 1267.92 1485C1287.17 1449.39 1306.42 1413.77 1325.67 1378.15C1329.49 1371.09 1332.4 1363.54 1334.3 1355.74C1337.39 1343.1 1340.47 1330.45 1343.56 1317.81C1354.37 1276.46 1332.55 1229.59 1293.94 1211.25C1218.45 1173.88 1142.98 1136.5 1067.5 1099.13C1037.7 1084.06 999.94 1086.73 972.559 1105.84C938.769 1129.01 904.979 1152.17 871.189 1175.34L871.179 1175.34C829.441 1212.69 787.702 1250.04 745.963 1287.39C686.969 1344.27 627.978 1401.14 568.986 1458.02L568.972 1458.03C535.066 1498.85 501.16 1539.66 467.254 1580.47C441.002 1610.52 414.746 1640.58 388.489 1670.64C359.933 1702.28 357.54 1753.7 383.054 1787.87C443.865 1872.11 504.673 1956.35 565.478 2040.59C595.434 2082.09 625.39 2123.59 655.345 2165.09ZM656.155 2164.51L655.345 2165.09L656.155 2164.51Z" fill="black" mask="url(#path-2-inside-1_12_2)"/>
<path d="M1628.42 1035.5C1628.42 1212.51 1482.01 1356 1301.42 1356C1120.82 1356 974.416 1212.51 974.416 1035.5C974.416 858.493 1120.82 715 1301.42 715C1482.01 715 1628.42 858.493 1628.42 1035.5Z" fill="white"/>
<circle cx="1301.42" cy="1035" r="303" fill="#FF0000"/>
<circle cx="602.416" cy="1892" r="372" fill="black"/>
<circle cx="602.916" cy="1892.5" r="265.5" fill="white"/>
<ellipse cx="1301.92" cy="1035" rx="230.5" ry="226" fill="white"/>
<circle cx="602.916" cy="1892.5" r="124.5" fill="#FF0000"/>
<path d="M1459.42 1020.5C1459.42 1107.49 1388.9 1178 1301.92 1178C1214.93 1178 1144.42 1107.49 1144.42 1020.5C1144.42 933.515 1214.93 863 1301.92 863C1388.9 863 1459.42 933.515 1459.42 1020.5Z" fill="#FF0000"/>
<path d="M1710.79 1042.8L1918.79 1008.3L2066.29 1328.3L2002.29 1411.8L1710.79 1042.8Z" fill="#FF0000"/>
<path d="M1680.34 941.786L1933.84 924.375L2017.77 508.107L1919.49 428L1680.34 941.786Z" fill="#FF0000"/>
<path d="M2455.46 1213.77L2458.46 1222.27L2002.97 1411.96L1973.83 1318.16L2073.96 1318.16L2264.46 1248.46L2415.96 1222.27L2455.46 1213.77Z" fill="#FF0000"/>
<path d="M2379.46 615.197L2382.46 606.697L2154.72 511.849L1926.97 417L1897.83 510.802L1997.96 510.802L2188.46 580.499L2339.96 606.697L2379.46 615.197Z" fill="#FF0000"/>
<line x1="1875.83" y1="931.983" x2="1696.83" y2="946.983" stroke="white" stroke-width="10"/>
<line x1="1920.62" y1="1002.85" x2="1743.62" y2="1046.85" stroke="white" stroke-width="10"/>
<path d="M1700.42 947.609L1715.42 841" stroke="white" stroke-width="10"/>
<line x1="1786.52" y1="1221.61" x2="1749.52" y2="1043.01" stroke="white" stroke-width="10"/>
</svg>
